<svg xmlns="http://www.w3.org/2000/svg" viewBox="0 0 294.78 316.79"><defs><style>.cls-1,.cls-2,.cls-5{fill-rule:evenodd;}.cls-2{fill:#e8e8e8;}.cls-3,.cls-4,.cls-6{fill:none;stroke:#e8e8e8;}.cls-3{stroke-width:1.5px;}.cls-4{stroke-width:3px;}.cls-5{fill:red;}.cls-6{stroke-width:2.25px;}</style></defs><g id="Camada_2" data-name="Camada 2"><g id="Camada_1-2" data-name="Camada 1"><path class="cls-1" d="M94.37,154.73,89.26,98.54,86.14,81.32S79.07,61.75,107.7,35.4l29.81-14.66,36.12,7.79,6.76-2.31,30.66,38.5V168.78Z"/><path class="cls-2" d="M228.05,316.79a14.34,14.34,0,0,1-7.3-2.19c-9.85-5.79-19.94-12.12-29.74-18.53-1.49-1-3-2-4.48-2.95q-7.83-5.19-15.71-10.51c-8.33-5.6-17-11.49-25.57-17.3-3.55-2.4-6.9-5.2-10.16-7.89-.59-.5-1.19-1-1.78-1.47-1.75-1.44-3.45-3-5.09-4.44a55.12,55.12,0,0,0-8.71-6.85A351,351,0,0,0,71.8,221.24q-8.41-3.31-16.73-5.91h0a3.2,3.2,0,0,0-.39.07,7.32,7.32,0,0,0-3.39,2.1c-.25,1-.51,2-.76,3-2.38,9.3-4.84,18.77-6.74,27.94-1.18,5.68-3.8,7.26-5.79,7.62a7.73,7.73,0,0,1-3.84-.47q-8.05-2.64-16-4.47-6.45-1.49-12.72-2.4a6.55,6.55,0,0,1-2.1-.74c-.18-.09-.35-.18-.55-.26C1.89,247.32.94,247,0,246.59c.58-1.3,1.15-2.6,1.73-3.92.47-1.07.92-2.13,1.38-3.18,1-2.32,1.95-4.6,2.95-6.89q1.64-3.73,3.29-7.54c2.33-5.37,4.73-11,6.92-16.7,0-.09,0-.2,0-.32-2.86-1.18-3.36-4.32-1.56-9.72.1-.3.21-.61.3-.91.24-.77.47-1.55.7-2.33.78-2.63,1.58-5.37,2.61-8.19.44-1.19,2.84-6.44,5.83-8l1-.52,1,.1a1.21,1.21,0,0,0,.77-.1,11.14,11.14,0,0,0,2.17-2.08l.48-.52a14.2,14.2,0,0,1,1.39-8c3.28-6.34,6.91-12.6,10.45-18.67l3.87-6.64,2-3.35a136.08,136.08,0,0,1,17.1,2.73c0,1.23-.1,2.46-.16,3.68-.1,2.25-.18,4.49-.26,6.73-.2,5.77-.41,11.73-1,17.7a25,25,0,0,1-2.64,8.18c-.11.24-.22.49-.34.73.85,4.63,3.77,5.55,9.27,7.25l.76.24A223.25,223.25,0,0,1,95.7,196.48c10.52,4.83,21.39,10.59,32.07,16.53a71.49,71.49,0,0,0,10.89,4.47c2,.72,4.12,1.48,6.19,2.37l2.24,1a82.51,82.51,0,0,1,9.85,4.8c9.15,5.45,18.33,11.29,27.1,17,5.26,3.42,10.49,6.87,15.7,10.28l7.63,5c9.54,6.28,19.32,12.67,28.95,18.43,6.59,4,9.88,8.92,10.12,15.34l0,1c-2.9,6.29-5.86,12.91-8.87,19.81l-.69.61a13.19,13.19,0,0,1-8.86,3.72Z"/><path class="cls-1" d="M48.31,146.37c-4.82,8.4-9.77,16.71-14.11,25.17-1,2-.26,4.84-.32,7.55-3,2.22-5.39,7.14-9.26,6.74-.39,0-2.05,2.52-2.55,3.91-1.23,3.37-2.14,6.75-3.15,10.08-.83,2.77-2.4,5.74,1,6.09.69.08.83,3.39.19,5.05-3.26,8.47-6.87,16.64-10.35,24.54-1.45,3.28-2.81,6.53-4.3,9.92a8.89,8.89,0,0,0,2,.72,152.89,152.89,0,0,1,28.49,6c2.32.72,3.3.67,4.07-3,2.16-10.28,4.92-20.71,7.62-31.34.82-3.3,6.46-7,9.12-6.23,21.24,6.22,43.19,16.52,64.57,29,5.09,3,9.51,7.79,14.27,11.71,3.82,3.17,7.61,6.48,11.61,9.22,13.86,9.52,27.63,19,41.22,28.06,11.47,7.64,22.89,14.85,34.27,21.4,4.33,2.49,8,2.18,11.58-1q4.13-9.5,8.13-18.2c-.18-5-2.89-8.26-7.59-10.93-12.22-6.92-24.36-14.78-36.7-22.72-14-9-28.2-18.36-42.73-26.94a98,98,0,0,0-11.7-5.52c-5.83-2.49-12-3.94-17.55-7-19.24-10.63-38.56-20.39-57.65-26.16-5.72-1.74-11.26-2.69-12.54-10.61-.11-.66-.64-1.11-.5-.87,1.4-3.67,3.2-6.59,3.44-9.31.71-8,.8-16,1.14-23.94a115.66,115.66,0,0,0-11.64-1.46Z"/><path class="cls-2" d="M66.74,316.79A14.31,14.31,0,0,0,74,314.6c9.86-5.79,19.94-12.12,29.74-18.53,1.49-1,3-2,4.48-2.95q7.83-5.19,15.72-10.51c8.33-5.6,17-11.49,25.56-17.3,3.55-2.4,6.9-5.2,10.16-7.89l1.79-1.47c1.75-1.44,3.44-3,5.08-4.44a55.58,55.58,0,0,1,8.71-6.85A351.11,351.11,0,0,1,223,221.24q8.4-3.31,16.72-5.91h0a3.2,3.2,0,0,1,.39.07,7.26,7.26,0,0,1,3.39,2.1c.25,1,.51,2,.76,3,2.39,9.3,4.84,18.77,6.74,27.94,1.18,5.68,3.81,7.26,5.8,7.62a7.68,7.68,0,0,0,3.83-.47c5.37-1.76,10.71-3.25,16-4.47,4.3-1,8.55-1.79,12.72-2.4a6.71,6.71,0,0,0,2.11-.74,5.44,5.44,0,0,1,.54-.26c.95-.39,1.89-.76,2.83-1.12-.58-1.3-1.15-2.6-1.72-3.92q-.71-1.6-1.38-3.18c-1-2.32-2-4.6-3-6.89q-1.64-3.73-3.29-7.54c-2.32-5.37-4.73-11-6.92-16.7a2.88,2.88,0,0,1,0-.32c2.85-1.18,3.35-4.32,1.55-9.72-.1-.3-.21-.61-.3-.91-.24-.77-.47-1.55-.7-2.33-.77-2.63-1.58-5.37-2.61-8.19-.44-1.19-2.84-6.44-5.82-8l-1-.52-1,.1a1.24,1.24,0,0,1-.77-.1,11.14,11.14,0,0,1-2.17-2.08l-.48-.52a14.2,14.2,0,0,0-1.39-8c-3.28-6.34-6.9-12.6-10.45-18.67l-3.87-6.64-1.94-3.35a136.23,136.23,0,0,0-17.11,2.73c.05,1.23.11,2.46.16,3.68.1,2.25.18,4.49.26,6.73.2,5.77.41,11.73.95,17.7a25,25,0,0,0,2.64,8.18l.34.73c-.84,4.63-3.77,5.55-9.27,7.25l-.76.24a223.25,223.25,0,0,0-25.68,10.11C188.57,201.31,177.69,207.07,167,213a72,72,0,0,1-10.9,4.47c-2,.72-4.12,1.48-6.19,2.37l-2.24,1a82.51,82.51,0,0,0-9.85,4.8c-9.15,5.45-18.32,11.29-27.09,17-5.26,3.42-10.5,6.87-15.7,10.28l-7.63,5c-9.55,6.28-19.33,12.67-29,18.43-6.58,4-9.88,8.92-10.12,15.34q0,.48,0,1c2.9,6.29,5.87,12.91,8.87,19.81l.69.61a13.19,13.19,0,0,0,8.87,3.72Z"/><path class="cls-1" d="M246.47,146.37c4.83,8.4,9.77,16.71,14.11,25.17,1,2,.26,4.84.33,7.55,3,2.22,5.38,7.14,9.26,6.74.39,0,2,2.52,2.55,3.91,1.22,3.37,2.13,6.75,3.14,10.08.84,2.77,2.4,5.74-1,6.09-.69.08-.82,3.39-.18,5.05,3.25,8.47,6.87,16.64,10.34,24.54,1.45,3.28,2.81,6.53,4.3,9.92a8.65,8.65,0,0,1-1.95.72,152.72,152.72,0,0,0-28.49,6c-2.33.72-3.31.67-4.08-3-2.16-10.28-4.92-20.71-7.61-31.34-.83-3.3-6.47-7-9.13-6.23-21.24,6.22-43.19,16.52-64.57,29-5.08,3-9.51,7.79-14.26,11.71-3.83,3.17-7.62,6.48-11.61,9.22-13.87,9.52-27.64,19-41.23,28.06C95,297.26,83.55,304.47,72.16,311c-4.33,2.49-8,2.18-11.57-1q-4.14-9.5-8.14-18.2c.19-5,2.89-8.26,7.59-10.93,12.23-6.92,24.36-14.78,36.7-22.72,14-9,28.21-18.36,42.73-26.94a98,98,0,0,1,11.7-5.52c5.83-2.49,12-3.94,17.55-7,19.25-10.63,38.56-20.39,57.66-26.16,5.71-1.74,11.26-2.69,12.54-10.61.1-.66.64-1.11.49-.87-1.4-3.67-3.19-6.59-3.43-9.31-.71-8-.81-16-1.15-23.94a115.66,115.66,0,0,1,11.64-1.46Z"/><rect x="123.05" y="217.66" width="51" height="38"/><rect class="cls-3" x="123.05" y="217.66" width="51" height="38"/><path class="cls-1" d="M198.42,216.48a7.5,7.5,0,0,1-2.06.32c-3.08,0-4-2.57-4.16-4.73-.64-6.88,5.07-15.93,11.51-18.26a9.38,9.38,0,0,1,3.11-.63c1,0,3.93,0,4,6.48,0,6.92-5.87,14.93-12.36,16.82Zm-23.57-68.79c-4.37-.37-6.46-1.63-8.27-5a93.42,93.42,0,0,0-11.71-16.24c-2.26-2.65-4.55-3.93-7-3.93s-4.82,1.34-7.09,4.09a116.18,116.18,0,0,0-11.95,16.92c-1.58,2.81-3.47,3.56-7.09,4.15a102.47,102.47,0,0,0-16.25,3.94,20.07,20.07,0,0,0-5.77,3.52,23.21,23.21,0,0,1-2-6.11c-.9-8.17-1.45-16.55-2-24.65-.17-2.63-.34-5.26-.53-7.88-.25-3.66-.38-6.63-.39-9.37,0-3.38,1.33-5.45,4-6.18,3.15-.86,6.34-1.45,9.71-2.08,2.87-.54,5.84-1.1,8.77-1.83a22.79,22.79,0,0,1,5.42-.72c5.19,0,9.75,2.26,14.33,7.1,3.5,3.68,7.8,5.71,12.12,5.71a15,15,0,0,0,11.71-6c3.68-4.59,7.71-6.55,13.48-6.55a59.55,59.55,0,0,1,9.17,1c1.79.28,3.65.58,5.51.79a42,42,0,0,1,7.91,2c.67.21,1.33.43,2,.63a5.24,5.24,0,0,1,3.9,5.75c-.64,12.81-1.5,27.92-3,42.9-.21,2.12-1.29,4.39-2.44,6.81-6.38-6.48-14.58-8.06-22.61-8.73Zm-42,57.63a28.2,28.2,0,0,1,15-4.19h1c6.17,0,11.38,1.35,15.75,4.12a50,50,0,0,0-31.7.08Zm35.33,40.37c-4.76,4-12.09,6.41-19.11,6.41-.74,0-1.48,0-2.21-.08h-.15a28,28,0,0,1-16.58-5.9c-4-3.08-6.19-7-6.22-11.13s2.12-8,6-11.15A31.89,31.89,0,0,1,168,224c3.68,3,5.72,6.8,5.75,10.82s-1.95,7.89-5.58,10.9ZM99,216.07a4,4,0,0,1-2.43.84,9.08,9.08,0,0,1-4.36-1.53,19.63,19.63,0,0,1-10-15.07c0-2.91.61-5.14,1.73-6.3a3.14,3.14,0,0,1,2.38-.94,7.88,7.88,0,0,1,3.15.78c6.39,2.82,10.18,8,11.26,15.38.62,4.17-.27,5.76-1.78,6.84ZM99,54.45a85.63,85.63,0,0,1,8.72-11.07c1.26-1.44,2.57-2.93,3.83-4.44l.09-.1a4.36,4.36,0,0,1,.73.41,88,88,0,0,0,8.78,4.81c1.26.63,2.56,1.27,3.88,2l3.77,2,.86-4.27c1.68-8.26,5.22-14.29,11.08-18.72,6,8.73,14.64,14.71,27,18.67l2.8.9,1.15-2.78a39.73,39.73,0,0,0,1.34-4.09,15.33,15.33,0,0,1,2.07-5.13q2.16,2,4.33,4c4.58,4.19,9.32,8.51,13.89,12.83,10.29,9.7,12.43,22.11,12.5,34.51-7.78-2.86-15.58-3.81-23.16-4.74-2.42-.3-4.92-.6-7.35-1a31.37,31.37,0,0,0-4.66-.36c-7,0-13.11,2.52-18.67,7.72-1,1-2.1,1.94-3.21,3l-1-1c-6.46-6.54-13.45-9.72-21.38-9.72a32.12,32.12,0,0,0-5.27.44c-2.54.41-5.16.75-7.69,1.09-7.1.94-14.39,1.9-21.63,4.49C91.6,72.3,94,62.64,99,54.45Zm125.52,51.62a2.6,2.6,0,0,1-.41-.22l-.23-1a64.51,64.51,0,0,1-1.76-10.23c-.19-3.3-.2-6.72-.2-10,0-3.79,0-7.71-.29-11.6-1.09-14.82-6.94-26.95-17.39-36.07-6.3-5.5-12.42-11.53-18.34-17.35l-3.76-3.7c-1-.94-2.74-2.68-5.27-2.68a6.5,6.5,0,0,0-3.72,1.28c-3.21,2.23-6.44,4.43-9.77,6.69l-2.31,1.58a22.52,22.52,0,0,1-9.18-16.65L151.59,2l-3.84,1.21a54.69,54.69,0,0,0-28.32,20.67l-6.79-7.8-2.41,2.24c-1.24,1.15-2.46,2.26-3.66,3.35-2.58,2.35-5,4.58-7.4,7C84.31,43.44,76.49,59.42,75.26,77.49a110.18,110.18,0,0,0,0,11.5c.13,3.38.25,6.57.1,9.76-.25,5.19-1.61,7.69-5,9.26a15.26,15.26,0,0,0-7.5,8.94,32.64,32.64,0,0,0-1.18,14.42c2.1,11.89,4.73,23.76,7.8,35.29,1,3.86,4.75,6.7,7.86,8.75a11.06,11.06,0,0,1,1.09.79l-.38.38c-6,5.63-8.91,12.84-8.76,21.43.31,17.59,14.75,37.17,35.1,37.74,7.71,21,22.48,33.48,40.79,34.33.75,0,1.5.05,2.24.05a43.47,43.47,0,0,0,24-7.14c9.83-6.36,16.53-15.58,20-27.42,9-.74,13.2-2.31,19.21-6.84,8.84-6.67,15-18.31,15.67-29.66.51-8.69-2.24-16.4-7.79-21.73a2.93,2.93,0,0,1,1.41-1.78c2.88-1.9,6.47-4.27,7.79-7.91a141.69,141.69,0,0,0,8.73-41.46c.5-9.61-3.59-16.57-11.82-20.12Z"/><path class="cls-4" d="M198.42,216.48a7.5,7.5,0,0,1-2.06.32c-3.08,0-4-2.57-4.16-4.73-.64-6.88,5.07-15.93,11.51-18.26a9.38,9.38,0,0,1,3.11-.63c1,0,3.93,0,4,6.48,0,6.92-5.87,14.93-12.36,16.82Zm-23.57-68.79c-4.37-.37-6.46-1.63-8.27-5a93.42,93.42,0,0,0-11.71-16.24c-2.26-2.65-4.55-3.93-7-3.93s-4.82,1.34-7.09,4.09a116.18,116.18,0,0,0-11.95,16.92c-1.58,2.81-3.47,3.56-7.09,4.15a102.47,102.47,0,0,0-16.25,3.94,20.07,20.07,0,0,0-5.77,3.52,23.21,23.21,0,0,1-2-6.11c-.9-8.17-1.45-16.55-2-24.65-.17-2.63-.34-5.26-.53-7.88-.25-3.66-.38-6.63-.39-9.37,0-3.38,1.33-5.45,4-6.18,3.15-.86,6.34-1.45,9.71-2.08,2.87-.54,5.84-1.1,8.77-1.83a22.79,22.79,0,0,1,5.42-.72c5.19,0,9.75,2.26,14.33,7.1,3.5,3.68,7.8,5.71,12.12,5.71a15,15,0,0,0,11.71-6c3.68-4.59,7.71-6.55,13.48-6.55a59.55,59.55,0,0,1,9.17,1c1.79.28,3.65.58,5.51.79a42,42,0,0,1,7.91,2c.67.21,1.33.43,2,.63a5.24,5.24,0,0,1,3.9,5.75c-.64,12.81-1.5,27.92-3,42.9-.21,2.12-1.29,4.39-2.44,6.81-6.38-6.48-14.58-8.06-22.61-8.73Zm-42,57.63a28.2,28.2,0,0,1,15-4.19h1c6.17,0,11.38,1.35,15.75,4.12a50,50,0,0,0-31.7.08Zm35.33,40.37c-4.76,4-12.09,6.41-19.11,6.41-.74,0-1.48,0-2.21-.08h-.15a28,28,0,0,1-16.58-5.9c-4-3.08-6.19-7-6.22-11.13s2.12-8,6-11.15A31.89,31.89,0,0,1,168,224c3.68,3,5.72,6.8,5.75,10.82s-1.95,7.89-5.58,10.9ZM99,216.07a4,4,0,0,1-2.43.84,9.08,9.08,0,0,1-4.36-1.53,19.63,19.63,0,0,1-10-15.07c0-2.91.61-5.14,1.73-6.3a3.14,3.14,0,0,1,2.38-.94,7.88,7.88,0,0,1,3.15.78c6.39,2.82,10.18,8,11.26,15.38.62,4.17-.27,5.76-1.78,6.84ZM99,54.45a85.63,85.63,0,0,1,8.72-11.07c1.26-1.44,2.57-2.93,3.83-4.44l.09-.1a4.36,4.36,0,0,1,.73.41,88,88,0,0,0,8.78,4.81c1.26.63,2.56,1.27,3.88,2l3.77,2,.86-4.27c1.68-8.26,5.22-14.29,11.08-18.72,6,8.73,14.64,14.71,27,18.67l2.8.9,1.15-2.78a39.73,39.73,0,0,0,1.34-4.09,15.33,15.33,0,0,1,2.07-5.13q2.16,2,4.33,4c4.58,4.19,9.32,8.51,13.89,12.83,10.29,9.7,12.43,22.11,12.5,34.51-7.78-2.86-15.58-3.81-23.16-4.74-2.42-.3-4.92-.6-7.35-1a31.37,31.37,0,0,0-4.66-.36c-7,0-13.11,2.52-18.67,7.72-1,1-2.1,1.94-3.21,3l-1-1c-6.46-6.54-13.45-9.72-21.38-9.72a32.12,32.12,0,0,0-5.27.44c-2.54.41-5.16.75-7.69,1.09-7.1.94-14.39,1.9-21.63,4.49C91.6,72.3,94,62.64,99,54.45Zm125.52,51.62a2.6,2.6,0,0,1-.41-.22l-.23-1a64.51,64.51,0,0,1-1.76-10.23c-.19-3.3-.2-6.72-.2-10,0-3.79,0-7.71-.29-11.6-1.09-14.82-6.94-26.95-17.39-36.07-6.3-5.5-12.42-11.53-18.34-17.35l-3.76-3.7c-1-.94-2.74-2.68-5.27-2.68a6.5,6.5,0,0,0-3.72,1.28c-3.21,2.23-6.44,4.43-9.77,6.69l-2.31,1.58a22.52,22.52,0,0,1-9.18-16.65L151.59,2l-3.84,1.21a54.69,54.69,0,0,0-28.32,20.67l-6.79-7.8-2.41,2.24c-1.24,1.15-2.46,2.26-3.66,3.35-2.58,2.35-5,4.58-7.4,7C84.31,43.44,76.49,59.42,75.26,77.49a110.18,110.18,0,0,0,0,11.5c.13,3.38.25,6.57.1,9.76-.25,5.19-1.61,7.69-5,9.26a15.26,15.26,0,0,0-7.5,8.94,32.64,32.64,0,0,0-1.18,14.42c2.1,11.89,4.73,23.76,7.8,35.29,1,3.86,4.75,6.7,7.86,8.75a11.06,11.06,0,0,1,1.09.79l-.38.38c-6,5.63-8.91,12.84-8.76,21.43.31,17.59,14.75,37.17,35.1,37.74,7.71,21,22.48,33.48,40.79,34.33.75,0,1.5.05,2.24.05a43.47,43.47,0,0,0,24-7.14c9.83-6.36,16.53-15.58,20-27.42,9-.74,13.2-2.31,19.21-6.84,8.84-6.67,15-18.31,15.67-29.66.51-8.69-2.24-16.4-7.79-21.73a2.93,2.93,0,0,1,1.41-1.78c2.88-1.9,6.47-4.27,7.79-7.91a141.69,141.69,0,0,0,8.73-41.46c.5-9.61-3.59-16.57-11.82-20.12Z"/><path class="cls-5" d="M111.07,106.08c-2.06-.73-2.93,0-3.77,1.59-3.55,7-1.23,12.86,7.13,17.71,8.57,5,13.39,5,19.65.67,2.66-1.85,2.67-3.38.53-5.49a62.86,62.86,0,0,0-23.54-14.48Z"/><path class="cls-6" d="M111.07,106.08c-2.06-.73-2.93,0-3.77,1.59-3.55,7-1.23,12.86,7.13,17.71,8.57,5,13.39,5,19.65.67,2.66-1.85,2.67-3.38.53-5.49a62.86,62.86,0,0,0-23.54-14.48Z"/><path class="cls-5" d="M185.54,106.18c-3.75,1.54-7.53,3-12.33,4.93-3.6,2.87-8,6.32-12.26,9.82-1.8,1.47-1.52,2.77.27,4.28,5.2,4.4,10.92,5.15,17.14,2,1.85-1,3.66-2,5.45-3,6.39-3.72,8.35-10,5.23-16.47-.75-1.55-1.64-2.28-3.5-1.52Z"/><path class="cls-6" d="M185.54,106.18c-3.75,1.54-7.53,3-12.33,4.93-3.6,2.87-8,6.32-12.26,9.82-1.8,1.47-1.52,2.77.27,4.28,5.2,4.4,10.92,5.15,17.14,2,1.85-1,3.66-2,5.45-3,6.39-3.72,8.35-10,5.23-16.47-.75-1.55-1.64-2.28-3.5-1.52Z"/><path class="cls-4" d="M94.65,216.48c-6.49-1.89-12.38-9.9-12.35-16.82,0-6.48,3-6.48,4-6.48a9.33,9.33,0,0,1,3.11.63c6.45,2.33,12.15,11.38,11.52,18.26-.2,2.16-1.08,4.73-4.17,4.73a7.56,7.56,0,0,1-2.06-.32Z"/></g></g></svg>