<svg width="199" height="180" viewBox="0 0 199 180" fill="none" xmlns="http://www.w3.org/2000/svg">
<path d="M79.35 143C85.6925 144.494 91.9241 146.425 98 148.78L102.55 150.51L107.05 152.32C108.56 152.89 110.05 153.54 111.53 154.14C113.01 154.74 114.53 155.39 115.98 156C121.89 158.49 127.83 161 134.15 162.33C135.74 162.58 137.32 162.9 138.91 163.1C140.5 163.3 142.11 163.38 143.72 163.47C145.33 163.56 146.93 163.47 148.53 163.41C150.13 163.35 151.73 163.13 153.32 163C159.651 162.167 165.914 160.88 172.06 159.15C175.133 158.277 178.153 157.277 181.12 156.15C182.541 155.637 183.93 155.04 185.28 154.36C186.444 153.767 187.466 152.932 188.28 151.91C188.991 151.009 189.382 149.897 189.39 148.75C189.376 148.246 189.235 147.755 188.98 147.32C188.687 146.794 188.316 146.315 187.88 145.9C186.962 145.009 185.817 144.386 184.57 144.1C184.013 143.966 183.435 143.946 182.87 144.04H182.68L182.35 144.12L181.68 144.27C181.26 144.35 180.83 144.45 180.42 144.5C177.14 144.984 173.825 145.191 170.51 145.12C168.858 145.098 167.209 144.981 165.57 144.77C163.906 144.61 162.281 144.174 160.76 143.48L160.91 143.11C164 143.82 167.25 143.41 170.41 143.11C173.563 142.739 176.691 142.185 179.78 141.45C180.17 141.36 180.52 141.24 180.89 141.15L181.39 140.98L181.65 140.89L182.04 140.77C183.055 140.486 184.117 140.418 185.16 140.57C187.118 140.871 188.954 141.712 190.46 143C191.252 143.644 191.928 144.419 192.46 145.29C193.036 146.254 193.378 147.34 193.46 148.46C193.578 150.578 192.963 152.672 191.72 154.39C190.551 155.95 189.039 157.219 187.3 158.1C185.765 158.907 184.163 159.576 182.51 160.1C179.383 161.14 176.213 162.043 173 162.81C169.799 163.586 166.557 164.183 163.29 164.6L160.84 164.87C160.02 164.93 159.19 164.97 158.37 165.02L155.91 165.15L154.68 165.22H153.44C146.896 165.273 140.36 164.74 133.91 163.63C127.432 162.639 121.042 161.137 114.8 159.14C111.71 158.14 108.66 156.92 105.68 155.62C102.7 154.32 99.74 153.02 96.8 151.62C90.93 148.9 85.07 146.22 79.21 143.36L79.35 143Z" fill="#42DCA3"/>
<path d="M61.1701 79C66.9121 88.3161 74.0406 96.7024 82.3101 103.87C84.4401 105.55 86.4301 107.4 88.6901 108.87C89.7901 109.65 90.8701 110.47 92.0001 111.23L95.4101 113.43L97.1301 114.53L98.8901 115.53L102.41 117.53L106.04 119.38L107.86 120.31C108.46 120.63 109.1 120.87 109.72 121.15L113.47 122.78C114.73 123.32 116.03 123.72 117.32 124.19C118.61 124.66 119.89 125.19 121.22 125.46L125.22 126.46C126.538 126.79 127.874 127.047 129.22 127.23C130.57 127.43 131.92 127.73 133.28 127.84L137.39 128.15C138.07 128.15 138.75 128.29 139.44 128.27H141.44C142.81 128.27 144.18 128.27 145.55 128.2L149.68 127.89C152.498 127.64 155.332 127.64 158.15 127.89C161.094 128.18 163.946 129.071 166.53 130.51C167.909 131.277 169.133 132.295 170.14 133.51C171.247 134.915 171.827 136.662 171.78 138.45V139.35L170.96 139.84C164.074 143.97 156.705 147.235 149.02 149.56C147.09 150.11 145.18 150.74 143.2 151.11C141.22 151.48 139.29 152.01 137.3 152.29C135.314 152.65 133.312 152.911 131.3 153.07L128.3 153.36L125.3 153.49C117.293 153.791 109.28 153.082 101.45 151.38C93.6732 149.701 86.1678 146.948 79.1501 143.2L79.3101 142.84C86.6401 145.54 94.2309 147.47 101.96 148.6C109.619 149.697 117.372 149.982 125.09 149.45L127.98 149.26L130.84 148.92C131.84 148.79 132.76 148.72 133.71 148.55C134.66 148.38 135.61 148.22 136.56 148.07C140.355 147.433 144.114 146.595 147.82 145.56C155.279 143.561 162.475 140.687 169.26 137L168.4 138.39C168.451 137.392 168.166 136.406 167.59 135.59C166.888 134.633 166.013 133.815 165.01 133.18C162.843 131.77 160.415 130.811 157.87 130.36C152.66 129.36 147.06 130.08 141.49 129.74C130.334 129.393 119.294 127.37 108.74 123.74C98.0801 120.2 88.4101 113.94 80.1101 106.41C79.0401 105.5 78.1101 104.41 77.1101 103.41L75.6301 101.91L74.8901 101.16L74.2101 100.35C72.3595 98.2493 70.6204 96.053 69.0001 93.77C68.2001 92.61 67.3601 91.5 66.6201 90.31L64.4901 86.7C64.1501 86.09 63.7701 85.51 63.4901 84.89L62.5901 83C61.9901 81.74 61.4301 80.47 60.8501 79.21L61.1701 79Z" fill="#42DCA3"/>
<path d="M174.86 160.14C177.94 159.66 180.86 158.49 184.18 158.14C185.015 158.028 185.858 157.981 186.7 158C187.585 158.025 188.463 158.149 189.32 158.37C191.045 158.841 192.646 159.684 194.01 160.84C194.677 161.404 195.302 162.015 195.88 162.67C196.499 163.354 197.023 164.117 197.44 164.94C198.289 166.643 198.662 168.543 198.52 170.44C198.372 172.419 197.541 174.285 196.17 175.72C194.849 177.064 193.186 178.022 191.36 178.49C189.702 178.921 187.993 179.126 186.28 179.1C185.45 179.1 184.63 179.1 183.82 178.98C183.01 178.86 182.21 178.76 181.41 178.65L179.02 178.31C178.22 178.22 177.45 177.99 176.67 177.84C175.11 177.5 173.54 177.27 172 176.84C170.46 176.41 168.92 176.11 167.37 175.84C165.82 175.57 164.3 175.06 162.76 174.73C159.67 174.02 156.6 173.26 153.52 172.51C147.37 170.97 141.26 169.27 135.29 167.17C129.32 165.07 123.29 163.05 117.46 160.72C105.75 155.93 94.3001 150.63 83.1101 144.72L83.2601 144.35C89.3601 146.11 95.3401 148.14 101.26 150.25C107.18 152.36 113.11 154.55 118.99 156.77C124.87 158.99 130.68 161.42 136.55 163.66L154.14 170.45C160.009 172.708 166.066 174.445 172.24 175.64C173.006 175.802 173.781 175.919 174.56 175.99L176.88 176.27C177.66 176.33 178.44 176.46 179.21 176.46H181.54C182.31 176.46 183.08 176.46 183.84 176.46C184.6 176.46 185.36 176.35 186.11 176.27C187.55 176.097 188.966 175.761 190.33 175.27C191.544 174.862 192.647 174.178 193.55 173.27C194.345 172.377 194.841 171.258 194.97 170.07C195.101 168.808 194.89 167.533 194.36 166.38C194.095 165.785 193.76 165.224 193.36 164.71C192.934 164.149 192.466 163.621 191.96 163.13C190.967 162.175 189.799 161.421 188.52 160.91C187.162 160.446 185.735 160.216 184.3 160.23C182.8 160.23 181.24 160.33 179.67 160.47C178.072 160.639 176.462 160.662 174.86 160.54V160.14Z" fill="#42DCA3"/>
<path d="M111.23 100.78C114.04 102.25 116.78 103.78 119.63 105.03C122.371 106.293 125.306 107.084 128.31 107.37C131.175 107.576 134.041 106.984 136.59 105.66C137.791 105.076 138.857 104.246 139.718 103.225C140.58 102.204 141.217 101.013 141.59 99.73V99.87C141.995 96.9718 141.597 94.018 140.44 91.33C139.877 89.9175 139.152 88.5752 138.28 87.33C137.367 86.0799 136.332 84.9242 135.19 83.88C132.798 81.7551 130.167 79.916 127.35 78.4C124.52 76.84 121.57 75.4 118.67 73.91C115.77 72.42 112.93 70.71 110.16 68.91C107.388 67.1048 104.717 65.1485 102.16 63.05C97.0244 58.8151 92.4865 53.9037 88.6699 48.45L88.7599 48.56C85.2699 44.35 81.6499 40.31 77.8499 36.56C74.1089 32.7635 69.9451 29.4082 65.4399 26.56C63.1718 25.1926 60.8014 24.0024 58.3499 23C55.8477 22.0355 53.2857 21.2338 50.6799 20.6C48.0499 19.94 45.3699 19.36 42.6799 18.76C39.9899 18.16 37.2999 17.54 34.6799 16.85L34.7399 16.46C40.2499 16.88 45.7399 17.26 51.2399 18.05C54.0374 18.4404 56.7994 19.0523 59.4999 19.88C62.2238 20.7567 64.8615 21.8814 67.3799 23.24C69.885 24.6002 72.2732 26.1656 74.5199 27.92C76.7731 29.63 78.9018 31.4981 80.8899 33.51C84.8126 37.4855 88.4579 41.7254 91.7999 46.2L91.8599 46.27C95.3911 51.5895 99.4554 56.5351 103.99 61.03C106.257 63.3103 108.672 65.4382 111.22 67.4C113.746 69.3916 116.42 71.1869 119.22 72.77C124.84 75.96 131.03 78.21 136.5 82.2C137.887 83.2098 139.167 84.3591 140.32 85.63C141.501 86.9474 142.5 88.4172 143.29 90C144.993 93.2081 145.624 96.8773 145.09 100.47V100.53V100.62C144.616 102.422 143.713 104.082 142.46 105.46C141.244 106.794 139.784 107.883 138.16 108.67C135.003 110.152 131.481 110.674 128.03 110.17C124.756 109.626 121.619 108.455 118.79 106.72C116.061 105.052 113.466 103.173 111.03 101.1L111.23 100.78Z" fill="#42DCA3"/>
<path d="M0.389999 0C2.16081 3.18368 4.83731 5.76969 8.07999 7.43C9.65839 8.29548 11.2997 9.04092 12.99 9.66C14.7 10.3 16.46 10.92 18.23 11.66C20 12.4 21.77 13.19 23.5 14.09C25.23 14.99 26.92 16 28.59 16.93C31.9502 18.8524 35.2079 20.9486 38.35 23.21C41.5612 25.5078 44.3923 28.295 46.74 31.47C47.9465 33.0575 49.0392 34.7283 50.01 36.47C50.9962 38.1987 51.8326 40.0086 52.51 41.88C55.2884 49.3121 55.7109 57.4194 53.72 65.1H53.32C52.917 57.6701 51.2989 50.3565 48.53 43.45C47.2051 40.0525 45.5681 36.7852 43.64 33.69C42.64 32.14 41.58 30.69 40.46 29.19C39.3425 27.7044 38.151 26.2759 36.89 24.91C34.3666 22.1165 31.3451 19.8173 27.98 18.13C26.2881 17.3113 24.5195 16.6615 22.7 16.19C20.88 15.71 19.04 15.33 17.18 14.87C15.294 14.3917 13.4484 13.7664 11.66 13C9.79528 12.2401 8.02645 11.2633 6.39 10.09C5.56219 9.48927 4.78615 8.82026 4.07 8.09C3.32289 7.37885 2.65255 6.5912 2.07 5.74C0.896637 4.07816 0.182597 2.13611 0 0.11L0.389999 0Z" fill="#42DCA3"/>
</svg>
